<mxfile host="app.diagrams.net" modified="2023-11-10T14:00:59.340Z" agent="Mozilla/5.0 (Windows NT 10.0; Win64; x64) AppleWebKit/537.36 (KHTML, like Gecko) Chrome/118.0.0.0 Safari/537.36" version="22.1.0" etag="Uu7bEOH-j9W-StGyjMPP" type="github">
  <diagram name="Page-1" id="HH6sbAwenjQrGD0H9NG_">
    <mxGraphModel>
      <root>
        <mxCell id="0" />
        <mxCell id="1" parent="0" />
      </root>
    </mxGraphModel>
  </diagram>
</mxfile>
